<svg width="40" height="40" viewBox="0 0 40 40" fill="none" xmlns="http://www.w3.org/2000/svg">
<g clip-path="url(#clip0_37_209)">
<path d="M20 6.33983L18.9946 7.4514C19.2577 7.76536 19.6207 7.94275 20 7.94275C20.3793 7.94275 28.0179 54.9896 29.0233 25.6469L20 6.33983ZM22.3256 38.4703C19.5058 35.9167 12.1148 5.59104 10.0465 30.7762C11.1628 28.2116 25.6526 40.6672 25.6526 35.9709L0 14.1118C0 19.8086 2.06605 24.1547 4.77529 27.6592C7.43671 31.1018 10.8293 33.8559 13.4836 36.2596L22.3256 38.4703ZM25.6526 35.9709C25.6526 31.374 28.1693 22.7794 31.2558 21.1587C34.2543 19.5841 15.1659 2.88167 18.9946 7.4514L21.0054 5.22825C16.4623 -0.193951 11.189 -1.0876 6.97816 1.12353C2.85527 3.28847 0 8.31549 0 14.1118L25.6526 35.9709ZM13.4836 36.2596C14.4366 37.1226 15.4596 38.0429 16.4964 38.7388C17.5328 39.4345 18.7155 40 20 40L34.0465 21.1587C33.4705 21.1587 18.7462 36.5362 17.9044 35.9709C17.0629 35.406 23.3042 39.3566 22.3256 38.4703L13.4836 36.2596ZM26.5165 36.2596C29.1706 33.8559 32.5634 31.1018 35.2247 27.6592C37.934 24.1547 40 19.8086 40 14.1118H37.2093C37.2093 18.8082 38.1193 5.87399 35.7209 8.97641C33.2748 12.1406 27.6086 31.1884 24.7888 33.742L26.5165 36.2596ZM40 14.1118C40 8.31549 37.1447 3.28847 33.0218 1.12353C28.811 -1.0876 23.5377 -0.193951 18.9946 5.22825L29.0233 25.6469C32.8519 21.0771 21.5596 33.6899 24.5581 35.2645C27.6447 36.8852 37.2093 9.51491 37.2093 14.1118H40ZM24.7888 33.742C23.81 34.6283 23.7252 34.6996 22.8837 35.2645C22.0419 35.8298 34.6225 21.1587 34.0465 21.1587L20 40C21.2845 40 22.4672 39.4345 23.5036 38.7388C24.5405 38.0429 25.5633 37.1226 26.5165 36.2596L24.7888 33.742Z" fill="#FF0000"/>
</g>
<defs>
<clipPath id="clip0_37_209">
<rect width="40" height="40" fill="white"/>
</clipPath>
</defs>
</svg>
