<svg width="30" height="30" viewBox="0 0 30 30" fill="none" xmlns="http://www.w3.org/2000/svg">
<g clip-path="url(#clip0_16_51)">
<path d="M21.6666 10.3125H19.4444V16.875H16.6666V27.6562H13.3333V16.875H10.5555V10.3125H8.33331V18.75H11.1111V29.5312H18.8889V18.75H21.6666V10.3125Z" fill="#D9D9D9"/>
<path d="M11.1111 3.28125C11.1111 5.08594 12.8611 6.5625 15 6.5625C17.1389 6.5625 18.8889 5.08594 18.8889 3.28125C18.8889 1.47656 17.1389 0 15 0C12.8611 0 11.1111 1.47656 11.1111 3.28125ZM16.6666 3.28125C16.6666 4.05469 15.9166 4.6875 15 4.6875C14.0833 4.6875 13.3333 4.05469 13.3333 3.28125C13.3333 2.50781 14.0833 1.875 15 1.875C15.9166 1.875 16.6666 2.50781 16.6666 3.28125Z" fill="#D9D9D9"/>
<path d="M1.66669 5.625C1.66669 7.42969 3.41669 8.90625 5.55558 8.90625C7.69446 8.90625 9.44446 7.42969 9.44446 5.625C9.44446 3.82031 7.69446 2.34375 5.55558 2.34375C3.41669 2.34375 1.66669 3.82031 1.66669 5.625ZM7.22224 5.625C7.22224 6.39844 6.47224 7.03125 5.55558 7.03125C4.63891 7.03125 3.88891 6.39844 3.88891 5.625C3.88891 4.85156 4.63891 4.21875 5.55558 4.21875C6.47224 4.21875 7.22224 4.85156 7.22224 5.625Z" fill="#D9D9D9"/>
<path d="M27.7778 19.2188H25V27.6562H20.5555V29.5312H27.2222V21.0938H30V11.7188H27.7778V19.2188Z" fill="#D9D9D9"/>
<path d="M20.5555 5.625C20.5555 7.42969 22.3055 8.90625 24.4444 8.90625C26.5833 8.90625 28.3333 7.42969 28.3333 5.625C28.3333 3.82031 26.5833 2.34375 24.4444 2.34375C22.3055 2.34375 20.5555 3.82031 20.5555 5.625ZM24.4444 4.21875C25.3611 4.21875 26.1111 4.85156 26.1111 5.625C26.1111 6.39844 25.3611 7.03125 24.4444 7.03125C23.5278 7.03125 22.7778 6.39844 22.7778 5.625C22.7778 4.85156 23.5278 4.21875 24.4444 4.21875Z" fill="#D9D9D9"/>
<path d="M5 19.2188H2.22222V11.7188H0V21.0938H2.77778V29.5312H9.44444V27.6562H5V19.2188Z" fill="#D9D9D9"/>
</g>
<defs>
<clipPath id="clip0_16_51">
<rect width="30" height="30" fill="white"/>
</clipPath>
</defs>
</svg>
